<svg xmlns="http://www.w3.org/2000/svg" width="189" height="80" fill="none" viewBox="0 0 189 80"><g clip-path="url(#clip0_168_4621)"><path fill="#fff" d="M73.104 9.85205L66.6176 14.5809V61.0983H0V64.318H5.49735C5.08852 65.1186 4.85786 66.0246 4.85786 66.9835C4.85786 70.2283 7.49893 72.8687 10.7438 72.8687C13.9886 72.8687 16.6281 70.2283 16.6281 66.9835C16.6281 66.0246 16.3974 65.1186 15.9889 64.318H52.239C51.8302 65.1186 51.5995 66.0246 51.5995 66.9835C51.5995 70.2283 54.2406 72.8687 57.4854 72.8687C60.7303 72.8687 63.3713 70.2283 63.3713 66.9835C63.3713 66.0246 63.1405 65.1186 62.7318 64.318H69.8374V16.2174L75 12.4539L73.104 9.85205ZM13.4085 66.9837C13.4085 68.4535 12.2138 69.6492 10.7438 69.6492C9.27383 69.6492 8.0775 68.4537 8.0775 66.9837C8.0775 65.5137 9.27398 64.3181 10.7438 64.3181C12.2138 64.3181 13.4085 65.5137 13.4085 66.9837ZM60.1515 66.9837C60.1515 68.4535 58.9551 69.6492 57.4852 69.6492C56.0152 69.6492 54.819 68.4537 54.819 66.9837C54.819 65.5137 56.0152 64.3181 57.4852 64.3181C58.9552 64.3181 60.1515 65.5137 60.1515 66.9837Z"/><path fill="#FF5C00" d="M59.0951 29.3485H34.0391V54.0626H59.0951V29.3485ZM55.8755 50.8429H37.2588V32.5682H55.8755V50.8429Z"/><path fill="#FF5C00" d="M56.0281 7.13154H37.1062V25.3348H56.0281V7.13154ZM52.8084 22.1152H40.3258V10.3512H52.8084V22.1152Z"/><path fill="#FF5C00" d="M29.914 29.3485H4.85786V54.0626H29.914V29.3485ZM26.6943 50.8429H8.0775V32.5682H26.6943V50.8429Z"/><path fill="#FF5C00" d="M94.36 4.68022C96.36 4.68022 98.0933 4.97355 99.56 5.56021C101.053 6.12021 102.427 6.98688 103.68 8.16021L100.88 11.4002C99.8933 10.6002 98.9067 10.0135 97.92 9.64021C96.9333 9.26688 95.88 9.08021 94.76 9.08021C93.5333 9.08021 92.5467 9.34688 91.8 9.88022C91.08 10.3869 90.72 11.1202 90.72 12.0802C90.72 12.7469 90.8667 13.2935 91.16 13.7202C91.48 14.1469 92.0267 14.5469 92.8 14.9202C93.5733 15.2935 94.7333 15.7202 96.28 16.2002C99.0267 17.0802 101.08 18.1735 102.44 19.4802C103.8 20.7602 104.48 22.6002 104.48 25.0002C104.48 26.7069 104.053 28.2135 103.2 29.5202C102.347 30.8002 101.107 31.8136 99.48 32.5602C97.8533 33.2802 95.9467 33.6402 93.76 33.6402C91.5733 33.6402 89.6267 33.2935 87.92 32.6002C86.2133 31.9069 84.7467 30.9602 83.52 29.7602L86.52 26.4402C87.5867 27.3469 88.6933 28.0402 89.84 28.5202C90.9867 28.9735 92.24 29.2002 93.6 29.2002C95.04 29.2002 96.1867 28.8669 97.04 28.2002C97.92 27.5336 98.36 26.6002 98.36 25.4002C98.36 24.6535 98.2 24.0402 97.88 23.5602C97.5867 23.0535 97.0667 22.6002 96.32 22.2002C95.5733 21.8002 94.4933 21.3869 93.08 20.9602C90.0667 20.0269 87.9067 18.9069 86.6 17.6002C85.32 16.2935 84.68 14.5869 84.68 12.4802C84.68 10.9335 85.0933 9.57355 85.92 8.40022C86.7467 7.20022 87.8933 6.28022 89.36 5.64022C90.8267 5.00022 92.4933 4.68022 94.36 4.68022Z"/><path fill="#FF5C00" d="M126.337 21.9202C126.337 22.1869 126.297 22.9202 126.217 24.1202H112.977C113.164 26.0402 113.684 27.4002 114.537 28.2002C115.391 29.0002 116.551 29.4002 118.017 29.4002C118.924 29.4002 119.777 29.2535 120.577 28.9602C121.377 28.6669 122.244 28.2002 123.177 27.5602L125.537 30.7602C123.164 32.6802 120.484 33.6402 117.497 33.6402C114.164 33.6402 111.604 32.6402 109.817 30.6402C108.031 28.6402 107.137 25.9335 107.137 22.5202C107.137 20.3602 107.511 18.4269 108.257 16.7202C109.031 14.9869 110.137 13.6269 111.577 12.6402C113.044 11.6535 114.777 11.1602 116.777 11.1602C119.791 11.1602 122.137 12.1069 123.817 14.0002C125.497 15.8935 126.337 18.5335 126.337 21.9202ZM120.697 20.3202C120.697 16.8002 119.431 15.0402 116.897 15.0402C115.724 15.0402 114.804 15.4802 114.137 16.3602C113.497 17.2135 113.111 18.6135 112.977 20.5602H120.697V20.3202Z"/><path fill="#FF5C00" d="M135.728 33.6402C133.995 33.6402 132.648 33.1469 131.688 32.1602C130.728 31.1469 130.248 29.7202 130.248 27.8802V3.36021L135.928 2.72021V27.7202C135.928 28.6535 136.315 29.1202 137.088 29.1202C137.515 29.1202 137.888 29.0402 138.208 28.8802L139.368 32.9202C138.275 33.4002 137.062 33.6402 135.728 33.6402Z"/><path fill="#FF5C00" d="M147.564 33.6402C145.831 33.6402 144.484 33.1469 143.524 32.1602C142.564 31.1469 142.084 29.7202 142.084 27.8802V3.36021L147.764 2.72021V27.7202C147.764 28.6535 148.151 29.1202 148.924 29.1202C149.351 29.1202 149.724 29.0402 150.044 28.8802L151.204 32.9202C150.111 33.4002 148.898 33.6402 147.564 33.6402Z"/><path fill="#FF5C00" d="M171.845 21.9202C171.845 22.1869 171.805 22.9202 171.725 24.1202H158.485C158.672 26.0402 159.192 27.4002 160.045 28.2002C160.898 29.0002 162.058 29.4002 163.525 29.4002C164.432 29.4002 165.285 29.2535 166.085 28.9602C166.885 28.6669 167.752 28.2002 168.685 27.5602L171.045 30.7602C168.672 32.6802 165.992 33.6402 163.005 33.6402C159.672 33.6402 157.112 32.6402 155.325 30.6402C153.538 28.6402 152.645 25.9335 152.645 22.5202C152.645 20.3602 153.018 18.4269 153.765 16.7202C154.538 14.9869 155.645 13.6269 157.085 12.6402C158.552 11.6535 160.285 11.1602 162.285 11.1602C165.298 11.1602 167.645 12.1069 169.325 14.0002C171.005 15.8935 171.845 18.5335 171.845 21.9202ZM166.205 20.3202C166.205 16.8002 164.938 15.0402 162.405 15.0402C161.232 15.0402 160.312 15.4802 159.645 16.3602C159.005 17.2135 158.618 18.6135 158.485 20.5602H166.205V20.3202Z"/><path fill="#FF5C00" d="M186.916 11.2002C187.556 11.2002 188.263 11.3069 189.036 11.5202L188.076 17.0002C187.33 16.8135 186.703 16.7202 186.196 16.7202C184.943 16.7202 183.97 17.1602 183.276 18.0402C182.583 18.9202 182.036 20.2535 181.636 22.0402V33.0002H175.956V11.8002H180.876L181.396 15.9202C181.903 14.4269 182.636 13.2669 183.596 12.4402C184.583 11.6135 185.69 11.2002 186.916 11.2002Z"/><path fill="#fff" d="M94.36 45.6802C96.36 45.6802 98.0933 45.9735 99.56 46.5602C101.053 47.1202 102.427 47.9869 103.68 49.1602L100.88 52.4002C99.8933 51.6002 98.9067 51.0135 97.92 50.6402C96.9333 50.2669 95.88 50.0802 94.76 50.0802C93.5333 50.0802 92.5467 50.3469 91.8 50.8802C91.08 51.3869 90.72 52.1202 90.72 53.0802C90.72 53.7469 90.8667 54.2935 91.16 54.7202C91.48 55.1469 92.0267 55.5469 92.8 55.9202C93.5733 56.2935 94.7333 56.7202 96.28 57.2002C99.0267 58.0802 101.08 59.1735 102.44 60.4802C103.8 61.7602 104.48 63.6002 104.48 66.0002C104.48 67.7069 104.053 69.2136 103.2 70.5202C102.347 71.8002 101.107 72.8136 99.48 73.5602C97.8533 74.2802 95.9467 74.6402 93.76 74.6402C91.5733 74.6402 89.6267 74.2936 87.92 73.6002C86.2133 72.9069 84.7467 71.9602 83.52 70.7602L86.52 67.4402C87.5867 68.3469 88.6933 69.0402 89.84 69.5202C90.9867 69.9735 92.24 70.2002 93.6 70.2002C95.04 70.2002 96.1867 69.8669 97.04 69.2002C97.92 68.5336 98.36 67.6002 98.36 66.4002C98.36 65.6535 98.2 65.0402 97.88 64.5602C97.5867 64.0535 97.0667 63.6002 96.32 63.2002C95.5733 62.8002 94.4933 62.3869 93.08 61.9602C90.0667 61.0269 87.9067 59.9069 86.6 58.6002C85.32 57.2935 84.68 55.5869 84.68 53.4802C84.68 51.9335 85.0933 50.5735 85.92 49.4002C86.7467 48.2002 87.8933 47.2802 89.36 46.6402C90.8267 46.0002 92.4933 45.6802 94.36 45.6802Z"/><path fill="#fff" d="M114.097 43.7202V74.0002H108.417V44.3602L114.097 43.7202ZM126.977 52.8002L120.217 62.1202L127.577 74.0002H121.137L114.297 62.4002L121.097 52.8002H126.977Z"/><path fill="#fff" d="M135.377 74.6402C133.644 74.6402 132.297 74.1469 131.337 73.1602C130.377 72.1469 129.897 70.7202 129.897 68.8802V44.3602L135.577 43.7202V68.7202C135.577 69.6535 135.964 70.1202 136.737 70.1202C137.164 70.1202 137.537 70.0402 137.857 69.8802L139.017 73.9202C137.924 74.4002 136.71 74.6402 135.377 74.6402Z"/><path fill="#fff" d="M157.938 68.1202C157.938 68.9469 158.057 69.5602 158.298 69.9602C158.538 70.3335 158.938 70.6135 159.497 70.8002L158.298 74.5602C157.044 74.4536 156.018 74.1602 155.217 73.6802C154.444 73.2002 153.844 72.4536 153.417 71.4402C152.031 73.5735 149.911 74.6402 147.057 74.6402C144.951 74.6402 143.271 74.0402 142.018 72.8402C140.791 71.6135 140.178 70.0269 140.178 68.0802C140.178 65.7602 141.018 63.9869 142.697 62.7602C144.377 61.5336 146.791 60.9202 149.938 60.9202H152.378V59.8802C152.378 58.5735 152.084 57.6669 151.497 57.1602C150.911 56.6535 149.938 56.4002 148.577 56.4002C147.084 56.4002 145.217 56.7735 142.977 57.5202L141.697 53.7202C144.337 52.6802 146.951 52.1602 149.538 52.1602C152.418 52.1602 154.538 52.7869 155.898 54.0402C157.258 55.2669 157.938 57.1069 157.938 59.5602V68.1202ZM148.618 70.5602C150.218 70.5602 151.471 69.7736 152.378 68.2002V64.1602H150.497C147.431 64.1602 145.898 65.3069 145.898 67.6002C145.898 68.5335 146.124 69.2669 146.577 69.8002C147.057 70.3069 147.738 70.5602 148.618 70.5602Z"/><path fill="#fff" d="M181.973 44.3602V74.0002H176.973L176.652 71.4002C175.159 73.5602 173.132 74.6402 170.572 74.6402C167.959 74.6402 165.959 73.6402 164.572 71.6402C163.212 69.6135 162.533 66.8669 162.533 63.4002C162.533 61.2136 162.879 59.2802 163.572 57.6002C164.292 55.8935 165.306 54.5602 166.613 53.6002C167.919 52.6402 169.426 52.1602 171.133 52.1602C173.106 52.1602 174.826 52.8669 176.292 54.2802V43.7202L181.973 44.3602ZM172.253 70.4002C173.079 70.4002 173.812 70.2002 174.452 69.8002C175.092 69.3736 175.706 68.7202 176.292 67.8402V58.3602C175.732 57.6936 175.159 57.2002 174.572 56.8802C174.012 56.5336 173.359 56.3602 172.613 56.3602C171.306 56.3602 170.279 56.9335 169.533 58.0802C168.812 59.2269 168.452 61.0002 168.452 63.4002C168.452 65.9335 168.773 67.7336 169.413 68.8002C170.079 69.8669 171.026 70.4002 172.253 70.4002Z"/></g><defs><clipPath id="clip0_168_4621"><rect width="189" height="80" fill="#fff" rx="4"/></clipPath></defs></svg>