<svg xmlns="http://www.w3.org/2000/svg" width="21" height="15" fill="none" viewBox="0 0 21 15"><path fill="#FF5C00" d="M6.50023 11.9L2.4169 7.81663C2.31012 7.70855 2.18295 7.62275 2.04276 7.56418C1.90258 7.50561 1.75216 7.47545 1.60023 7.47545C1.4483 7.47545 1.29788 7.50561 1.15769 7.56418C1.01751 7.62275 0.890339 7.70855 0.783562 7.81663C0.675482 7.92341 0.589672 8.05058 0.531106 8.19077C0.47254 8.33095 0.442383 8.48137 0.442383 8.6333C0.442383 8.78523 0.47254 8.93565 0.531106 9.07584C0.589672 9.21602 0.675482 9.34319 0.783562 9.44997L5.6719 14.3383C6.1269 14.7933 6.8619 14.7933 7.3169 14.3383L19.6836 1.9833C19.7916 1.87652 19.8775 1.74936 19.936 1.60917C19.9946 1.46898 20.0247 1.31856 20.0247 1.16663C20.0247 1.01471 19.9946 0.864288 19.936 0.7241C19.8775 0.583913 19.7916 0.456745 19.6836 0.349968C19.5768 0.241889 19.4496 0.156078 19.3094 0.0975122C19.1692 0.038946 19.0188 0.00878906 18.8669 0.00878906C18.715 0.00878906 18.5646 0.038946 18.4244 0.0975122C18.2842 0.156078 18.157 0.241889 18.0502 0.349968L6.50023 11.9Z"/></svg>